HIERARCHY
ROOT Root
{
OFFSET 0.000000 0.000000 0.000000
  CHANNELS 6 Xposition Yposition Zposition Zrotation Yrotation Xrotation
 JOINT Hips
 {
   OFFSET -0.00455359416082507 101.28157745081357 1.7763568394002505e-15
   CHANNELS 6 Xposition Yposition Zposition Zrotation Yrotation Xrotation
  JOINT Spine1
  {
    OFFSET 5.003913 -0.037094 -0.013727
    CHANNELS 3 Zrotation Yrotation Xrotation
   JOINT Spine2
   {
     OFFSET 7.125363 -0.000001 -0.000000
     CHANNELS 3 Zrotation Yrotation Xrotation
    JOINT Chest
    {
      OFFSET 7.594027 0.000001 -0.000000
      CHANNELS 3 Zrotation Yrotation Xrotation
     JOINT Neck1
     {
       OFFSET 26.313085 -0.460272 -0.181672
       CHANNELS 3 Zrotation Yrotation Xrotation
      JOINT Neck2
      {
        OFFSET 8.045911 -0.000000 0.000000
        CHANNELS 3 Zrotation Yrotation Xrotation
       JOINT Head
       {
         OFFSET 6.432774 0.000000 0.000000
         CHANNELS 3 Zrotation Yrotation Xrotation
        JOINT HeadEnd
        {
          OFFSET 16.169773 0.064510 0.003620
          CHANNELS 3 Zrotation Yrotation Xrotation
        }
        JOINT Jaw
        {
          OFFSET 0.108741 3.129380 0.002639
          CHANNELS 3 Zrotation Yrotation Xrotation
        }
        JOINT LeftEye
        {
          OFFSET 4.451730 8.166359 3.206392
          CHANNELS 3 Zrotation Yrotation Xrotation
        }
        JOINT RightEye
        {
          OFFSET 4.436895 8.135758 -3.222429
          CHANNELS 3 Zrotation Yrotation Xrotation
        }
       }
      }
     }
     JOINT LeftShoulder
     {
       OFFSET 23.218928 5.195579 1.621656
       CHANNELS 3 Zrotation Yrotation Xrotation
      JOINT LeftArm
      {
        OFFSET 15.902118 0.000002 -0.000002
        CHANNELS 3 Zrotation Yrotation Xrotation
       JOINT LeftForeArm
       {
         OFFSET 28.739307 0.000000 -0.000001
         CHANNELS 3 Zrotation Yrotation Xrotation
        JOINT LeftHand
        {
          OFFSET 27.093980 -0.000004 -0.000000
          CHANNELS 3 Zrotation Yrotation Xrotation
         JOINT LeftHandThumb1
         {
           OFFSET 2.276781 3.380274 0.833840
           CHANNELS 3 Zrotation Yrotation Xrotation
          JOINT LeftHandThumb2
          {
            OFFSET 4.705309 -0.000001 -0.000001
            CHANNELS 3 Zrotation Yrotation Xrotation
           JOINT LeftHandThumb3
           {
             OFFSET 2.798515 -0.000000 0.000003
             CHANNELS 3 Zrotation Yrotation Xrotation
            JOINT LeftHandThumbEnd
            {
              OFFSET 3.180793 0.000004 -0.000004
              CHANNELS 3 Zrotation Yrotation Xrotation
            }
           }
          }
         }
         JOINT LeftHandIndex1
         {
           OFFSET 3.247786 2.352677 0.137192
           CHANNELS 3 Zrotation Yrotation Xrotation
          JOINT LeftHandIndex2
          {
            OFFSET 6.367095 0.000001 -0.000000
            CHANNELS 3 Zrotation Yrotation Xrotation
           JOINT LeftHandIndex3
           {
             OFFSET 3.662364 -0.000000 0.000000
             CHANNELS 3 Zrotation Yrotation Xrotation
            JOINT LeftHandIndex4
            {
              OFFSET 2.329242 0.000004 -0.000004
              CHANNELS 3 Zrotation Yrotation Xrotation
             JOINT LeftHandIndexEnd
             {
               OFFSET 2.767823 0.000001 0.000000
               CHANNELS 3 Zrotation Yrotation Xrotation
             }
            }
           }
          }
         }
         JOINT LeftHandMiddle1
         {
           OFFSET 3.163612 0.945023 -0.406112
           CHANNELS 3 Zrotation Yrotation Xrotation
          JOINT LeftHandMiddle2
          {
            OFFSET 6.276789 0.000003 -0.000000
            CHANNELS 3 Zrotation Yrotation Xrotation
           JOINT LeftHandMiddle3
           {
             OFFSET 4.356520 -0.000001 0.000004
             CHANNELS 3 Zrotation Yrotation Xrotation
            JOINT LeftHandMiddle4
            {
              OFFSET 2.996877 -0.000000 0.000008
              CHANNELS 3 Zrotation Yrotation Xrotation
             JOINT LeftHandMiddleEnd
             {
               OFFSET 2.323256 0.000003 -0.000004
               CHANNELS 3 Zrotation Yrotation Xrotation
             }
            }
           }
          }
         }
         JOINT LeftHandRing1
         {
           OFFSET 2.882606 -0.309162 0.107445
           CHANNELS 3 Zrotation Yrotation Xrotation
          JOINT LeftHandRing2
          {
            OFFSET 6.033198 0.000000 0.000004
            CHANNELS 3 Zrotation Yrotation Xrotation
           JOINT LeftHandRing3
           {
             OFFSET 4.350578 0.000003 -0.000000
             CHANNELS 3 Zrotation Yrotation Xrotation
            JOINT LeftHandRing4
            {
              OFFSET 2.651321 0.000002 -0.000007
              CHANNELS 3 Zrotation Yrotation Xrotation
             JOINT LeftHandRingEnd
             {
               OFFSET 1.937663 0.000001 -0.000004
               CHANNELS 3 Zrotation Yrotation Xrotation
             }
            }
           }
          }
         }
         JOINT LeftHandPinky1
         {
           OFFSET 2.865315 -1.525436 0.575687
           CHANNELS 3 Zrotation Yrotation Xrotation
          JOINT LeftHandPinky2
          {
            OFFSET 5.549360 0.000001 -0.000008
            CHANNELS 3 Zrotation Yrotation Xrotation
           JOINT LeftHandPinky3
           {
             OFFSET 3.070974 0.000000 -0.000004
             CHANNELS 3 Zrotation Yrotation Xrotation
            JOINT LeftHandPinky4
            {
              OFFSET 1.549672 0.000001 -0.000000
              CHANNELS 3 Zrotation Yrotation Xrotation
             JOINT LeftHandPinkyEnd
             {
               OFFSET 1.952123 -0.000000 0.000000
               CHANNELS 3 Zrotation Yrotation Xrotation
             }
            }
           }
          }
         }
        }
       }
      }
     }
     JOINT RightShoulder
     {
       OFFSET 23.161717 5.296122 -1.380114
       CHANNELS 3 Zrotation Yrotation Xrotation
      JOINT RightArm
      {
        OFFSET -16.027195 -0.000002 0.000011
        CHANNELS 3 Zrotation Yrotation Xrotation
       JOINT RightForeArm
       {
         OFFSET -28.736639 0.000004 0.000002
         CHANNELS 3 Zrotation Yrotation Xrotation
        JOINT RightHand
        {
          OFFSET -27.133619 0.000006 0.000000
          CHANNELS 3 Zrotation Yrotation Xrotation
         JOINT RightHandThumb1
         {
           OFFSET -2.274328 -3.351035 -0.830670
           CHANNELS 3 Zrotation Yrotation Xrotation
          JOINT RightHandThumb2
          {
            OFFSET -4.703594 -0.000003 0.000002
            CHANNELS 3 Zrotation Yrotation Xrotation
           JOINT RightHandThumb3
           {
             OFFSET -2.794935 -0.000004 -0.000003
             CHANNELS 3 Zrotation Yrotation Xrotation
            JOINT RightHandThumbEnd
            {
              OFFSET -3.183852 0.000004 0.000001
              CHANNELS 3 Zrotation Yrotation Xrotation
            }
           }
          }
         }
         JOINT RightHandIndex1
         {
           OFFSET -3.253496 -2.337550 -0.127667
           CHANNELS 3 Zrotation Yrotation Xrotation
          JOINT RightHandIndex2
          {
            OFFSET -6.344434 0.000000 -0.000000
            CHANNELS 3 Zrotation Yrotation Xrotation
           JOINT RightHandIndex3
           {
             OFFSET -3.654871 0.000000 -0.000008
             CHANNELS 3 Zrotation Yrotation Xrotation
            JOINT RightHandIndex4
            {
              OFFSET -2.327586 -0.000001 -0.000000
              CHANNELS 3 Zrotation Yrotation Xrotation
             JOINT RightHandIndexEnd
             {
               OFFSET -2.770001 0.000003 0.000008
               CHANNELS 3 Zrotation Yrotation Xrotation
             }
            }
           }
          }
         }
         JOINT RightHandMiddle1
         {
           OFFSET -3.168223 -0.944764 0.411762
           CHANNELS 3 Zrotation Yrotation Xrotation
          JOINT RightHandMiddle2
          {
            OFFSET -6.266691 -0.000001 -0.000004
            CHANNELS 3 Zrotation Yrotation Xrotation
           JOINT RightHandMiddle3
           {
             OFFSET -4.348901 -0.000000 -0.000000
             CHANNELS 3 Zrotation Yrotation Xrotation
            JOINT RightHandMiddle4
            {
              OFFSET -3.000240 0.000002 -0.000004
              CHANNELS 3 Zrotation Yrotation Xrotation
             JOINT RightHandMiddleEnd
             {
               OFFSET -2.321477 -0.000004 -0.000004
               CHANNELS 3 Zrotation Yrotation Xrotation
             }
            }
           }
          }
         }
         JOINT RightHandRing1
         {
           OFFSET -2.885654 0.293261 -0.119232
           CHANNELS 3 Zrotation Yrotation Xrotation
          JOINT RightHandRing2
          {
            OFFSET -6.032835 -0.000001 -0.000004
            CHANNELS 3 Zrotation Yrotation Xrotation
           JOINT RightHandRing3
           {
             OFFSET -4.338810 0.000000 -0.000004
             CHANNELS 3 Zrotation Yrotation Xrotation
            JOINT RightHandRing4
            {
              OFFSET -2.654903 -0.000004 -0.000004
              CHANNELS 3 Zrotation Yrotation Xrotation
             JOINT RightHandRingEnd
             {
               OFFSET -1.935122 0.000000 0.000004
               CHANNELS 3 Zrotation Yrotation Xrotation
             }
            }
           }
          }
         }
         JOINT RightHandPinky1
         {
           OFFSET -2.866241 1.503904 -0.605270
           CHANNELS 3 Zrotation Yrotation Xrotation
          JOINT RightHandPinky2
          {
            OFFSET -5.553177 -0.000002 0.000000
            CHANNELS 3 Zrotation Yrotation Xrotation
           JOINT RightHandPinky3
           {
             OFFSET -3.062664 -0.000001 -0.000004
             CHANNELS 3 Zrotation Yrotation Xrotation
            JOINT RightHandPinky4
            {
              OFFSET -1.546529 0.000002 0.000004
              CHANNELS 3 Zrotation Yrotation Xrotation
             JOINT RightHandPinkyEnd
             {
               OFFSET -1.952341 -0.000000 -0.000004
               CHANNELS 3 Zrotation Yrotation Xrotation
             }
            }
           }
          }
         }
        }
       }
      }
     }
    }
   }
  }
  JOINT LeftLeg
  {
    OFFSET -8.443107 2.567604 10.043214
    CHANNELS 3 Zrotation Yrotation Xrotation
   JOINT LeftShin
   {
     OFFSET 43.229200 0.000001 -0.000001
     CHANNELS 3 Zrotation Yrotation Xrotation
    JOINT LeftFoot
    {
      OFFSET 42.298609 0.000001 0.000001
      CHANNELS 3 Zrotation Yrotation Xrotation
     JOINT LeftToeBase
     {
       OFFSET 14.165858 0.000001 0.000000
       CHANNELS 3 Zrotation Yrotation Xrotation
      JOINT LeftToeEnd
      {
        OFFSET 6.714100 -0.234461 0.000000
        CHANNELS 3 Zrotation Yrotation Xrotation
      }
     }
    }
   }
  }
  JOINT RightLeg
  {
    OFFSET -8.303923 2.592729 -10.047278
    CHANNELS 3 Zrotation Yrotation Xrotation
   JOINT RightShin
   {
     OFFSET -43.369684 -0.000000 0.000001
     CHANNELS 3 Zrotation Yrotation Xrotation
    JOINT RightFoot
    {
      OFFSET -42.260785 0.000004 0.000002
      CHANNELS 3 Zrotation Yrotation Xrotation
     JOINT RightToeBase
     {
       OFFSET -14.222245 -0.000002 -0.000001
       CHANNELS 3 Zrotation Yrotation Xrotation
      JOINT RightToeEnd
      {
        OFFSET -6.660062 0.232574 -0.000002
        CHANNELS 3 Zrotation Yrotation Xrotation
      }
     }
    }
   }
  }
 }
}
MOTION
Frames: 4
Frame Time: 0.008333
0.000000 0.000000 0.000000 0.000000 0.000000 0.000000 3.958005 100.896805 4.733930 -89.802250 -181.088047 120.103391 -3.401307 -0.386097 -0.405945 -13.121284 -2.022103 -3.596927 17.722618 6.139378 -4.156447 12.398821 -5.643667 2.686303 -2.583593 -0.556517 4.586531 -25.289610 -7.580352 8.339408 0.000006 0.000000 0.000000 0.000006 0.000000 0.000000 0.027695 0.000717 0.005679 0.027685 0.000716 0.005676 -87.792854 -77.738466 101.473275 26.511926 -22.541224 -26.568029 102.558863 -0.000348 -0.000166 20.705983 2.969072 44.297856 17.636621 -26.322712 52.411155 -19.466645 -14.395592 29.410352 0.000000 -8.774814 0.000000 0.000000 0.000000 -0.000004 -0.609776 -1.795653 -3.889325 -4.807087 -11.046803 -2.937845 0.000000 -20.975994 0.000000 -5.019973 -25.033521 -4.031871 0.000006 0.000000 0.000000 -10.634530 -5.686969 -3.565584 10.573263 -17.922936 -3.113898 0.000000 -13.821193 0.000000 -0.501785 -31.181457 -4.027009 0.000002 0.000000 0.000002 -13.982710 -7.150195 -2.875039 13.772719 -8.401483 -3.218239 0.347728 -34.211501 0.771652 -0.963029 -17.733337 2.621012 0.000000 0.000000 0.000000 -17.346414 -20.095210 -4.201776 21.757546 -1.638370 3.866422 0.000000 -6.338816 0.000000 -1.697594 -22.591709 -6.193992 0.000000 -0.000004 -0.000002 76.582954 -67.682314 -238.155277 31.472065 -64.829615 -28.917586 100.683467 -0.000333 -0.000128 8.305943 14.301807 12.901256 22.182096 -20.375874 49.933272 -16.701795 -16.743521 28.476499 0.000000 -12.690592 0.000000 0.000003 0.000000 0.000000 -0.105919 -1.513855 -4.275878 -5.039037 -5.612866 -2.953552 0.000000 -11.020509 0.000000 -6.111297 -15.895308 -3.840458 0.000000 0.000000 0.000000 -10.283364 -5.680285 -4.341833 11.028282 -11.302392 -2.372630 -1.384272 -14.238564 -6.320108 -0.625450 -26.924139 -3.827588 0.000002 0.000000 0.000002 -13.708517 -7.363472 -3.720934 18.141130 -14.052722 -3.242670 0.000000 -18.787243 0.000000 -0.429714 -8.456029 2.555498 0.000000 0.000000 0.000000 -15.923531 -20.094472 -5.473576 30.419190 -7.190812 1.735924 0.000000 -8.162914 0.000000 -1.861911 -22.861429 -6.167925 0.000000 -0.000003 -0.000001 178.844752 -2.879823 -10.860198 5.542980 0.000208 0.000203 -75.546921 1.546250 -8.063961 -7.818614 1.589119 2.141268 -0.999998 0.000000 0.000000 -2.566562 -2.010506 -5.704167 5.552246 -0.000065 0.000395 -73.574844 9.566573 -1.128476 -6.118468 0.645898 1.661471 -1.000001 0.000000 0.000000
0.000000 0.000000 0.000000 0.000000 0.000000 0.000000 3.976283 100.898346 4.695807 -89.786168 -181.101919 120.229659 -3.400944 -0.365089 -0.408277 -13.119494 -1.991825 -3.549036 17.742167 6.063851 -4.123960 12.394778 -5.710945 2.686249 -2.583441 -0.556222 4.549661 -25.340677 -7.401690 8.226071 0.000006 0.000000 0.000000 0.000006 0.000000 0.000000 0.027631 0.000702 0.005555 0.027621 0.000702 0.005553 -88.064665 -77.719721 101.608103 25.965062 -23.956370 -25.523113 102.604294 -0.000348 -0.000165 20.679518 2.890735 44.583640 17.636621 -26.322712 52.411155 -19.466645 -14.395592 29.410352 0.000000 -8.774814 0.000000 0.000000 0.000000 -0.000004 -0.609776 -1.795653 -3.889325 -4.807087 -11.046803 -2.937845 0.000000 -20.975994 0.000000 -5.019973 -25.033521 -4.031871 0.000006 0.000000 0.000000 -10.634530 -5.686969 -3.565584 10.573263 -17.922936 -3.113898 0.000000 -13.821193 0.000000 -0.501785 -31.181457 -4.027009 0.000002 0.000000 0.000002 -13.982710 -7.150195 -2.875039 13.772719 -8.401483 -3.218239 0.347728 -34.211501 0.771652 -0.963029 -17.733337 2.621012 0.000000 0.000000 0.000000 -17.346414 -20.095210 -4.201776 21.757546 -1.638370 3.866422 0.000000 -6.338816 0.000000 -1.697594 -22.591709 -6.193992 0.000000 -0.000004 -0.000002 76.959796 -67.839748 -238.516654 30.662463 -65.139729 -28.040812 100.000814 -0.000330 -0.000130 8.653709 14.649451 13.145281 22.182096 -20.375874 49.933272 -16.701795 -16.743521 28.476499 0.000000 -12.690592 0.000000 0.000003 0.000000 0.000000 -0.105919 -1.513855 -4.275878 -5.039037 -5.612866 -2.953552 0.000000 -11.020509 0.000000 -6.111297 -15.895308 -3.840458 0.000000 0.000000 0.000000 -10.283364 -5.680285 -4.341833 11.028282 -11.302392 -2.372630 -1.384272 -14.238564 -6.320108 -0.625450 -26.924139 -3.827588 0.000002 0.000000 0.000002 -13.708517 -7.363472 -3.720934 18.141130 -14.052722 -3.242670 0.000000 -18.787243 0.000000 -0.429714 -8.456029 2.555498 0.000000 0.000000 0.000000 -15.923531 -20.094472 -5.473576 30.419190 -7.190812 1.735924 0.000000 -8.162914 0.000000 -1.861911 -22.861429 -6.167925 0.000000 -0.000003 -0.000001 178.812858 -2.909405 -10.845101 5.542965 0.000208 0.000203 -75.515962 1.653501 -8.028793 -7.870410 1.590080 2.141136 -0.999998 0.000000 0.000000 -2.558524 -1.978293 -5.751243 5.550965 -0.000065 0.000395 -73.571941 9.459272 -1.048038 -6.123768 0.645997 1.661460 -1.000001 0.000000 0.000000
0.000000 0.000000 0.000000 0.000000 0.000000 0.000000 3.997989 100.897369 4.660308 -89.769111 -181.116689 120.361737 -3.395306 -0.345554 -0.405914 -13.114811 -1.960594 -3.501694 17.748595 5.985688 -4.094072 12.392893 -5.748530 2.686219 -2.583051 -0.556624 4.493691 -25.391858 -7.258278 8.107107 0.000006 0.000000 0.000000 0.000006 0.000000 0.000000 0.027544 0.000689 0.005444 0.027533 0.000689 0.005442 -88.436673 -77.630184 101.913104 25.533981 -25.288321 -24.545955 102.567622 -0.000348 -0.000165 20.639299 2.840878 44.791275 17.636621 -26.322712 52.411155 -19.466645 -14.395592 29.410352 0.000000 -8.774814 0.000000 0.000000 0.000000 -0.000004 -0.609776 -1.795653 -3.889325 -4.807087 -11.046803 -2.937845 0.000000 -20.975994 0.000000 -5.019973 -25.033521 -4.031871 0.000006 0.000000 0.000000 -10.634530 -5.686969 -3.565584 10.573263 -17.922936 -3.113898 0.000000 -13.821193 0.000000 -0.501785 -31.181457 -4.027009 0.000002 0.000000 0.000002 -13.982710 -7.150195 -2.875039 13.772719 -8.401483 -3.218239 0.347728 -34.211501 0.771652 -0.963029 -17.733337 2.621012 0.000000 0.000000 0.000000 -17.346414 -20.095210 -4.201776 21.757546 -1.638370 3.866422 0.000000 -6.338816 0.000000 -1.697594 -22.591709 -6.193992 0.000000 -0.000004 -0.000002 77.292146 -67.986070 -238.823302 29.835979 -65.407113 -27.135349 99.298309 -0.000327 -0.000132 9.000197 15.019506 13.331558 22.182096 -20.375874 49.933272 -16.701795 -16.743521 28.476499 0.000000 -12.690592 0.000000 0.000003 0.000000 0.000000 -0.105919 -1.513855 -4.275878 -5.039037 -5.612866 -2.953552 0.000000 -11.020509 0.000000 -6.111297 -15.895308 -3.840458 0.000000 0.000000 0.000000 -10.283364 -5.680285 -4.341833 11.028282 -11.302392 -2.372630 -1.384272 -14.238564 -6.320108 -0.625450 -26.924139 -3.827588 0.000002 0.000000 0.000002 -13.708517 -7.363472 -3.720934 18.141130 -14.052722 -3.242670 0.000000 -18.787243 0.000000 -0.429714 -8.456029 2.555498 0.000000 0.000000 0.000000 -15.923531 -20.094472 -5.473576 30.419190 -7.190812 1.735924 0.000000 -8.162914 0.000000 -1.861911 -22.861429 -6.167925 0.000000 -0.000003 -0.000001 178.778159 -2.936317 -10.804235 5.543843 0.000208 0.000203 -75.480361 1.734342 -7.985356 -7.920603 1.591011 2.141007 -0.999998 0.000000 0.000000 -2.551106 -1.947760 -5.796638 5.550756 -0.000065 0.000395 -73.572600 9.347977 -0.977255 -6.129265 0.646100 1.661449 -1.000001 0.000000 0.000000
0.000000 0.000000 0.000000 0.000000 0.000000 0.000000 4.018752 100.896553 4.632726 -89.749851 -181.134033 120.501525 -3.381883 -0.327470 -0.397195 -13.105103 -1.928364 -3.454607 17.734513 5.905664 -4.066949 12.388688 -5.743841 2.686235 -2.582282 -0.558041 4.408830 -25.442969 -7.170110 7.980942 0.000006 0.000000 0.000000 0.000006 0.000000 0.000000 0.027413 0.000679 0.005352 0.027403 0.000678 0.005350 -88.960083 -77.433475 102.471074 25.292404 -26.507466 -23.681655 102.435269 -0.000347 -0.000167 20.578190 2.826634 44.894534 17.636621 -26.322712 52.411155 -19.466645 -14.395592 29.410352 0.000000 -8.774814 0.000000 0.000000 0.000000 -0.000004 -0.609776 -1.795653 -3.889325 -4.807087 -11.046803 -2.937845 0.000000 -20.975994 0.000000 -5.019973 -25.033521 -4.031871 0.000006 0.000000 0.000000 -10.634530 -5.686969 -3.565584 10.573263 -17.922936 -3.113898 0.000000 -13.821193 0.000000 -0.501785 -31.181457 -4.027009 0.000002 0.000000 0.000002 -13.982710 -7.150195 -2.875039 13.772719 -8.401483 -3.218239 0.347728 -34.211501 0.771652 -0.963029 -17.733337 2.621012 0.000000 0.000000 0.000000 -17.346414 -20.095210 -4.201776 21.757546 -1.638370 3.866422 0.000000 -6.338816 0.000000 -1.697594 -22.591709 -6.193992 0.000000 -0.000004 -0.000002 77.557394 -68.115258 -239.043164 28.997990 -65.615650 -26.213685 98.576777 -0.000324 -0.000134 9.345798 15.405546 13.445297 22.182096 -20.375874 49.933272 -16.701795 -16.743521 28.476499 0.000000 -12.690592 0.000000 0.000003 0.000000 0.000000 -0.105919 -1.513855 -4.275878 -5.039037 -5.612866 -2.953552 0.000000 -11.020509 0.000000 -6.111297 -15.895308 -3.840458 0.000000 0.000000 0.000000 -10.283364 -5.680285 -4.341833 11.028282 -11.302392 -2.372630 -1.384272 -14.238564 -6.320108 -0.625450 -26.924139 -3.827588 0.000002 0.000000 0.000002 -13.708517 -7.363472 -3.720934 18.141130 -14.052722 -3.242670 0.000000 -18.787243 0.000000 -0.429714 -8.456029 2.555498 0.000000 0.000000 0.000000 -15.923531 -20.094472 -5.473576 30.419190 -7.190812 1.735924 0.000000 -8.162914 0.000000 -1.861911 -22.861429 -6.167925 0.000000 -0.000003 -0.000001 178.738721 -2.959450 -10.722968 5.543398 0.000208 0.000203 -75.435646 1.772848 -7.930138 -7.970996 1.591946 2.140876 -0.999998 0.000000 0.000000 -2.545965 -1.919446 -5.840111 5.550767 -0.000065 0.000395 -73.577083 9.232070 -0.919086 -6.132965 0.646169 1.661442 -1.000001 0.000000 0.000000
